<svg width="750" height="100" viewBox="0 0 750 100" fill="none" xmlns="http://www.w3.org/2000/svg">
<rect width="750" height="100" fill="#E5E5E5"/>
<path d="M308.264 46.2C309.515 46.2 310.495 46.4987 311.204 47.096C311.913 47.6933 312.268 48.5147 312.268 49.56C312.268 50.6053 311.913 51.4267 311.204 52.024C310.495 52.612 309.515 52.906 308.264 52.906H305.632V56H304.596V46.2H308.264ZM308.236 51.996C309.207 51.996 309.949 51.786 310.462 51.366C310.975 50.9367 311.232 50.3347 311.232 49.56C311.232 48.7667 310.975 48.16 310.462 47.74C309.949 47.3107 309.207 47.096 308.236 47.096H305.632V51.996H308.236ZM321.071 48.636V56H320.119V54.656C319.857 55.104 319.498 55.454 319.041 55.706C318.583 55.9487 318.061 56.07 317.473 56.07C316.511 56.07 315.751 55.804 315.191 55.272C314.64 54.7307 314.365 53.942 314.365 52.906V48.636H315.359V52.808C315.359 53.5827 315.55 54.1707 315.933 54.572C316.315 54.9733 316.861 55.174 317.571 55.174C318.345 55.174 318.957 54.9407 319.405 54.474C319.853 53.998 320.077 53.34 320.077 52.5V48.636H321.071ZM327.649 48.58C328.339 48.58 328.965 48.7387 329.525 49.056C330.085 49.364 330.523 49.8027 330.841 50.372C331.158 50.9413 331.317 51.59 331.317 52.318C331.317 53.046 331.158 53.6947 330.841 54.264C330.523 54.8333 330.085 55.2767 329.525 55.594C328.965 55.9113 328.339 56.07 327.649 56.07C327.033 56.07 326.477 55.9393 325.983 55.678C325.497 55.4167 325.105 55.0387 324.807 54.544V56H323.855V45.612H324.849V50.036C325.157 49.56 325.549 49.2007 326.025 48.958C326.51 48.706 327.051 48.58 327.649 48.58ZM327.579 55.188C328.092 55.188 328.559 55.0713 328.979 54.838C329.399 54.5953 329.725 54.2547 329.959 53.816C330.201 53.3773 330.323 52.878 330.323 52.318C330.323 51.758 330.201 51.2587 329.959 50.82C329.725 50.3813 329.399 50.0453 328.979 49.812C328.559 49.5693 328.092 49.448 327.579 49.448C327.056 49.448 326.585 49.5693 326.165 49.812C325.754 50.0453 325.427 50.3813 325.185 50.82C324.951 51.2587 324.835 51.758 324.835 52.318C324.835 52.878 324.951 53.3773 325.185 53.816C325.427 54.2547 325.754 54.5953 326.165 54.838C326.585 55.0713 327.056 55.188 327.579 55.188ZM333.343 45.612H334.337V56H333.343V45.612ZM337.103 48.636H338.097V56H337.103V48.636ZM337.607 47.026C337.401 47.026 337.229 46.956 337.089 46.816C336.949 46.676 336.879 46.508 336.879 46.312C336.879 46.1253 336.949 45.962 337.089 45.822C337.229 45.682 337.401 45.612 337.607 45.612C337.812 45.612 337.985 45.682 338.125 45.822C338.265 45.9527 338.335 46.1113 338.335 46.298C338.335 46.5033 338.265 46.676 338.125 46.816C337.985 46.956 337.812 47.026 337.607 47.026ZM343.915 56.07C343.187 56.07 342.533 55.9113 341.955 55.594C341.385 55.2767 340.937 54.8333 340.611 54.264C340.284 53.6853 340.121 53.0367 340.121 52.318C340.121 51.5993 340.284 50.9553 340.611 50.386C340.937 49.8167 341.385 49.3733 341.955 49.056C342.533 48.7387 343.187 48.58 343.915 48.58C344.549 48.58 345.114 48.706 345.609 48.958C346.113 49.2007 346.509 49.56 346.799 50.036L346.057 50.54C345.814 50.176 345.506 49.9053 345.133 49.728C344.759 49.5413 344.353 49.448 343.915 49.448C343.383 49.448 342.902 49.5693 342.473 49.812C342.053 50.0453 341.721 50.3813 341.479 50.82C341.245 51.2587 341.129 51.758 341.129 52.318C341.129 52.8873 341.245 53.3913 341.479 53.83C341.721 54.2593 342.053 54.5953 342.473 54.838C342.902 55.0713 343.383 55.188 343.915 55.188C344.353 55.188 344.759 55.0993 345.133 54.922C345.506 54.7447 345.814 54.474 346.057 54.11L346.799 54.614C346.509 55.09 346.113 55.454 345.609 55.706C345.105 55.9487 344.54 56.07 343.915 56.07ZM348.751 48.636H349.745V56H348.751V48.636ZM349.255 47.026C349.05 47.026 348.877 46.956 348.737 46.816C348.597 46.676 348.527 46.508 348.527 46.312C348.527 46.1253 348.597 45.962 348.737 45.822C348.877 45.682 349.05 45.612 349.255 45.612C349.461 45.612 349.633 45.682 349.773 45.822C349.913 45.9527 349.983 46.1113 349.983 46.298C349.983 46.5033 349.913 46.676 349.773 46.816C349.633 46.956 349.461 47.026 349.255 47.026ZM359.231 45.612V56H358.279V54.544C357.98 55.0387 357.584 55.4167 357.089 55.678C356.604 55.9393 356.053 56.07 355.437 56.07C354.746 56.07 354.121 55.9113 353.561 55.594C353.001 55.2767 352.562 54.8333 352.245 54.264C351.928 53.6947 351.769 53.046 351.769 52.318C351.769 51.59 351.928 50.9413 352.245 50.372C352.562 49.8027 353.001 49.364 353.561 49.056C354.121 48.7387 354.746 48.58 355.437 48.58C356.034 48.58 356.571 48.706 357.047 48.958C357.532 49.2007 357.929 49.56 358.237 50.036V45.612H359.231ZM355.521 55.188C356.034 55.188 356.496 55.0713 356.907 54.838C357.327 54.5953 357.654 54.2547 357.887 53.816C358.13 53.3773 358.251 52.878 358.251 52.318C358.251 51.758 358.13 51.2587 357.887 50.82C357.654 50.3813 357.327 50.0453 356.907 49.812C356.496 49.5693 356.034 49.448 355.521 49.448C354.998 49.448 354.527 49.5693 354.107 49.812C353.696 50.0453 353.37 50.3813 353.127 50.82C352.894 51.2587 352.777 51.758 352.777 52.318C352.777 52.878 352.894 53.3773 353.127 53.816C353.37 54.2547 353.696 54.5953 354.107 54.838C354.527 55.0713 354.998 55.188 355.521 55.188ZM364.575 48.58C365.537 48.58 366.274 48.8227 366.787 49.308C367.301 49.784 367.557 50.4933 367.557 51.436V56H366.605V54.852C366.381 55.2347 366.05 55.5333 365.611 55.748C365.182 55.9627 364.669 56.07 364.071 56.07C363.25 56.07 362.597 55.874 362.111 55.482C361.626 55.09 361.383 54.572 361.383 53.928C361.383 53.3027 361.607 52.7987 362.055 52.416C362.513 52.0333 363.236 51.842 364.225 51.842H366.563V51.394C366.563 50.7593 366.386 50.2787 366.031 49.952C365.677 49.616 365.159 49.448 364.477 49.448C364.011 49.448 363.563 49.5273 363.133 49.686C362.704 49.8353 362.335 50.0453 362.027 50.316L361.579 49.574C361.953 49.2567 362.401 49.014 362.923 48.846C363.446 48.6687 363.997 48.58 364.575 48.58ZM364.225 55.286C364.785 55.286 365.266 55.16 365.667 54.908C366.069 54.6467 366.367 54.2733 366.563 53.788V52.584H364.253C362.993 52.584 362.363 53.0227 362.363 53.9C362.363 54.3293 362.527 54.67 362.853 54.922C363.18 55.1647 363.637 55.286 364.225 55.286ZM377.004 45.612V56H376.052V54.544C375.754 55.0387 375.357 55.4167 374.862 55.678C374.377 55.9393 373.826 56.07 373.21 56.07C372.52 56.07 371.894 55.9113 371.334 55.594C370.774 55.2767 370.336 54.8333 370.018 54.264C369.701 53.6947 369.542 53.046 369.542 52.318C369.542 51.59 369.701 50.9413 370.018 50.372C370.336 49.8027 370.774 49.364 371.334 49.056C371.894 48.7387 372.52 48.58 373.21 48.58C373.808 48.58 374.344 48.706 374.82 48.958C375.306 49.2007 375.702 49.56 376.01 50.036V45.612H377.004ZM373.294 55.188C373.808 55.188 374.27 55.0713 374.68 54.838C375.1 54.5953 375.427 54.2547 375.66 53.816C375.903 53.3773 376.024 52.878 376.024 52.318C376.024 51.758 375.903 51.2587 375.66 50.82C375.427 50.3813 375.1 50.0453 374.68 49.812C374.27 49.5693 373.808 49.448 373.294 49.448C372.772 49.448 372.3 49.5693 371.88 49.812C371.47 50.0453 371.143 50.3813 370.9 50.82C370.667 51.2587 370.55 51.758 370.55 52.318C370.55 52.878 370.667 53.3773 370.9 53.816C371.143 54.2547 371.47 54.5953 371.88 54.838C372.3 55.0713 372.772 55.188 373.294 55.188ZM386.185 52.626H380.025C380.081 53.3913 380.375 54.012 380.907 54.488C381.439 54.9547 382.111 55.188 382.923 55.188C383.38 55.188 383.8 55.1087 384.183 54.95C384.565 54.782 384.897 54.5393 385.177 54.222L385.737 54.866C385.41 55.258 384.999 55.5567 384.505 55.762C384.019 55.9673 383.483 56.07 382.895 56.07C382.139 56.07 381.467 55.9113 380.879 55.594C380.3 55.2673 379.847 54.8193 379.521 54.25C379.194 53.6807 379.031 53.0367 379.031 52.318C379.031 51.5993 379.185 50.9553 379.493 50.386C379.81 49.8167 380.239 49.3733 380.781 49.056C381.331 48.7387 381.947 48.58 382.629 48.58C383.31 48.58 383.921 48.7387 384.463 49.056C385.004 49.3733 385.429 49.8167 385.737 50.386C386.045 50.946 386.199 51.59 386.199 52.318L386.185 52.626ZM382.629 49.434C381.919 49.434 381.322 49.6627 380.837 50.12C380.361 50.568 380.09 51.156 380.025 51.884H385.247C385.181 51.156 384.906 50.568 384.421 50.12C383.945 49.6627 383.347 49.434 382.629 49.434ZM398.144 46.2V46.914L394.042 56H392.95L396.982 47.096H391.942V48.93H390.948V46.2H398.144ZM401.788 50.218C403.207 50.218 404.238 50.4747 404.882 50.988C405.536 51.492 405.862 52.2013 405.862 53.116C405.862 53.6853 405.727 54.194 405.456 54.642C405.195 55.09 404.798 55.4447 404.266 55.706C403.734 55.958 403.081 56.084 402.306 56.084C401.606 56.084 400.939 55.972 400.304 55.748C399.679 55.5147 399.175 55.2067 398.792 54.824L399.282 54.026C399.609 54.362 400.038 54.6373 400.57 54.852C401.102 55.0573 401.676 55.16 402.292 55.16C403.104 55.16 403.73 54.978 404.168 54.614C404.616 54.25 404.84 53.7647 404.84 53.158C404.84 52.486 404.588 51.9773 404.084 51.632C403.59 51.2867 402.75 51.114 401.564 51.114H399.478L399.982 46.2H405.344V47.096H400.864L400.528 50.218H401.788ZM411.048 56.084C410.292 56.084 409.615 55.8833 409.018 55.482C408.43 55.0807 407.968 54.5067 407.632 53.76C407.305 53.004 407.142 52.1173 407.142 51.1C407.142 50.0827 407.305 49.2007 407.632 48.454C407.968 47.698 408.43 47.1193 409.018 46.718C409.615 46.3167 410.292 46.116 411.048 46.116C411.804 46.116 412.476 46.3167 413.064 46.718C413.661 47.1193 414.128 47.698 414.464 48.454C414.8 49.2007 414.968 50.0827 414.968 51.1C414.968 52.1173 414.8 53.004 414.464 53.76C414.128 54.5067 413.661 55.0807 413.064 55.482C412.476 55.8833 411.804 56.084 411.048 56.084ZM411.048 55.16C411.617 55.16 412.117 55.0013 412.546 54.684C412.985 54.3667 413.325 53.9047 413.568 53.298C413.811 52.6913 413.932 51.9587 413.932 51.1C413.932 50.2413 413.811 49.5087 413.568 48.902C413.325 48.2953 412.985 47.8333 412.546 47.516C412.117 47.1987 411.617 47.04 411.048 47.04C410.479 47.04 409.975 47.1987 409.536 47.516C409.107 47.8333 408.771 48.2953 408.528 48.902C408.285 49.5087 408.164 50.2413 408.164 51.1C408.164 51.9587 408.285 52.6913 408.528 53.298C408.771 53.9047 409.107 54.3667 409.536 54.684C409.975 55.0013 410.479 55.16 411.048 55.16ZM421.623 56L419.285 52.92L416.933 56H415.813L418.725 52.22L415.953 48.636H417.073L419.285 51.52L421.497 48.636H422.589L419.817 52.22L422.757 56H421.623ZM426.538 46.2V56H425.53V47.096H423.22V46.2H426.538ZM432.786 56.084C432.03 56.084 431.354 55.8833 430.756 55.482C430.168 55.0807 429.706 54.5067 429.37 53.76C429.044 53.004 428.88 52.1173 428.88 51.1C428.88 50.0827 429.044 49.2007 429.37 48.454C429.706 47.698 430.168 47.1193 430.756 46.718C431.354 46.3167 432.03 46.116 432.786 46.116C433.542 46.116 434.214 46.3167 434.802 46.718C435.4 47.1193 435.866 47.698 436.202 48.454C436.538 49.2007 436.706 50.0827 436.706 51.1C436.706 52.1173 436.538 53.004 436.202 53.76C435.866 54.5067 435.4 55.0807 434.802 55.482C434.214 55.8833 433.542 56.084 432.786 56.084ZM432.786 55.16C433.356 55.16 433.855 55.0013 434.284 54.684C434.723 54.3667 435.064 53.9047 435.306 53.298C435.549 52.6913 435.67 51.9587 435.67 51.1C435.67 50.2413 435.549 49.5087 435.306 48.902C435.064 48.2953 434.723 47.8333 434.284 47.516C433.855 47.1987 433.356 47.04 432.786 47.04C432.217 47.04 431.713 47.1987 431.274 47.516C430.845 47.8333 430.509 48.2953 430.266 48.902C430.024 49.5087 429.902 50.2413 429.902 51.1C429.902 51.9587 430.024 52.6913 430.266 53.298C430.509 53.9047 430.845 54.3667 431.274 54.684C431.713 55.0013 432.217 55.16 432.786 55.16ZM442.056 56.084C441.3 56.084 440.623 55.8833 440.026 55.482C439.438 55.0807 438.976 54.5067 438.64 53.76C438.313 53.004 438.15 52.1173 438.15 51.1C438.15 50.0827 438.313 49.2007 438.64 48.454C438.976 47.698 439.438 47.1193 440.026 46.718C440.623 46.3167 441.3 46.116 442.056 46.116C442.812 46.116 443.484 46.3167 444.072 46.718C444.669 47.1193 445.136 47.698 445.472 48.454C445.808 49.2007 445.976 50.0827 445.976 51.1C445.976 52.1173 445.808 53.004 445.472 53.76C445.136 54.5067 444.669 55.0807 444.072 55.482C443.484 55.8833 442.812 56.084 442.056 56.084ZM442.056 55.16C442.625 55.16 443.125 55.0013 443.554 54.684C443.993 54.3667 444.333 53.9047 444.576 53.298C444.819 52.6913 444.94 51.9587 444.94 51.1C444.94 50.2413 444.819 49.5087 444.576 48.902C444.333 48.2953 443.993 47.8333 443.554 47.516C443.125 47.1987 442.625 47.04 442.056 47.04C441.487 47.04 440.983 47.1987 440.544 47.516C440.115 47.8333 439.779 48.2953 439.536 48.902C439.293 49.5087 439.172 50.2413 439.172 51.1C439.172 51.9587 439.293 52.6913 439.536 53.298C439.779 53.9047 440.115 54.3667 440.544 54.684C440.983 55.0013 441.487 55.16 442.056 55.16Z" fill="#9A9A9A"/>
</svg>
