<svg width="50" height="10" viewBox="0 0 50 10" fill="none" xmlns="http://www.w3.org/2000/svg">
<g clip-path="url(#clip0_2_273)">
<path d="M3.99996 2.83998C3.40874 2.82882 2.82418 2.96637 2.29996 3.23998C1.79943 3.48872 1.35658 3.8396 0.999964 4.26998C0.667067 4.68943 0.416036 5.16774 0.259964 5.67998C0.0918396 6.18653 0.00410933 6.71628 -3.58822e-05 7.24998C-0.0366334 7.98245 0.21458 8.70021 0.699964 9.24998C0.997301 9.51973 1.3469 9.7255 1.72707 9.85452C2.10724 9.98353 2.50986 10.033 2.90996 9.99998C3.24481 9.99801 3.57906 9.97127 3.90996 9.91998C4.21613 9.86997 4.51502 9.78265 4.79996 9.65998C4.80796 9.364 4.77771 9.06822 4.70996 8.77998C4.65812 8.57932 4.57727 8.3873 4.46996 8.20998C4.24477 8.3095 4.0103 8.38654 3.76996 8.43998C3.5782 8.4715 3.38429 8.48821 3.18996 8.48998C2.84434 8.50319 2.50717 8.38123 2.24996 8.14998C2.11667 8.00758 2.01483 7.83871 1.95109 7.65436C1.88734 7.47001 1.86311 7.27431 1.87996 7.07998C1.87808 6.74232 1.92181 6.40594 2.00996 6.07998C2.08302 5.7694 2.21177 5.47464 2.38996 5.20998C2.55961 4.96525 2.77738 4.75769 3.02996 4.59998C3.32248 4.42499 3.6593 4.33818 3.99996 4.34998C4.21209 4.34627 4.42382 4.3698 4.62996 4.41998C4.82816 4.46302 5.02223 4.52325 5.20996 4.59998C5.35825 4.37224 5.46962 4.12249 5.53996 3.85998C5.60854 3.61913 5.64551 3.37038 5.64996 3.11998C5.39256 3.01852 5.12401 2.94803 4.84996 2.90998C4.56856 2.86732 4.28456 2.84394 3.99996 2.83998Z" fill="white"/>
<path d="M8.99995 8.32003C8.91293 8.35162 8.82217 8.37179 8.72995 8.38003H8.53995H8.29995C8.22269 8.37108 8.14971 8.33981 8.08995 8.29003C8.0451 8.23868 8.01412 8.17672 7.99995 8.11003C7.9553 8.00597 7.93478 7.89315 7.93995 7.78003C7.9327 7.6568 7.9327 7.53325 7.93995 7.41003L8.99995 2.09003C9.05995 1.81003 9.09995 1.55003 9.13995 1.31003C9.15625 1.09709 9.15959 0.883366 9.14995 0.670027C9.15646 0.500528 9.13276 0.331223 9.07995 0.170027C8.80248 0.121369 8.52162 0.0946197 8.23995 0.0900269H7.72995L7.21995 0.170027C7.21995 0.250027 7.21995 0.320027 7.21995 0.390027V0.630027C7.21661 0.924259 7.19658 1.21806 7.15995 1.51003C7.15995 1.86003 7.05995 2.27003 6.95995 2.74003L6.10995 7.26003C6.10995 7.41003 6.05995 7.56003 6.03995 7.69003C6.03079 7.81987 6.03079 7.95019 6.03995 8.08003C6.01937 8.33718 6.05524 8.59572 6.14507 8.83756C6.23489 9.07939 6.37649 9.29866 6.55995 9.48003C6.96159 9.79178 7.46229 9.94803 7.96995 9.92003C8.20764 9.92449 8.44524 9.90776 8.67995 9.87003C8.85382 9.84876 9.02484 9.80852 9.18995 9.75003C9.1944 9.68343 9.1944 9.61662 9.18995 9.55003C9.19521 9.48346 9.19521 9.41659 9.18995 9.35003C9.20475 9.17033 9.20475 8.98972 9.18995 8.81003C9.10995 8.63003 9.06995 8.47003 8.99995 8.32003Z" fill="white"/>
<path d="M10.5399 3.62C10.4904 3.82964 10.4669 4.0446 10.4699 4.26C10.4645 4.28975 10.4645 4.32025 10.4699 4.35V4.43H11.3099L10.3099 9.84C10.6041 9.88924 10.9017 9.91599 11.1999 9.92C11.5181 9.91695 11.8357 9.89021 12.1499 9.84L13.4099 3H10.7399C10.6522 3.19927 10.5852 3.40703 10.5399 3.62Z" fill="white"/>
<path d="M13.9199 0.09C13.7623 0.0487317 13.6019 0.0186568 13.4399 0L12.9999 0H12.5199C12.352 0.0127813 12.185 0.0361612 12.0199 0.07C11.9236 0.357837 11.8468 0.651836 11.7899 0.95C11.7391 1.24041 11.719 1.53537 11.7299 1.83C11.8895 1.84689 12.0504 1.84689 12.2099 1.83H12.6699H13.1399C13.3063 1.84529 13.4736 1.84529 13.6399 1.83C13.7255 1.55822 13.7923 1.2809 13.8399 1C13.8991 0.7004 13.9259 0.395321 13.9199 0.09Z" fill="white"/>
<path d="M17.7199 2.83998C17.129 2.83135 16.545 2.96875 16.0199 3.23998C15.5458 3.4899 15.1246 3.82952 14.7799 4.23998C14.4335 4.66785 14.169 5.15604 13.9999 5.67998C13.8318 6.18653 13.7441 6.71628 13.7399 7.24998C13.7061 7.98383 13.9609 8.70176 14.4499 9.24998C14.7467 9.5164 15.0953 9.71874 15.4738 9.84435C15.8524 9.96995 16.2527 10.0161 16.6499 9.97998C16.9848 9.97801 17.319 9.95127 17.6499 9.89998C17.9596 9.85128 18.262 9.76393 18.5499 9.63998C18.5579 9.344 18.5277 9.04822 18.4599 8.75998C18.4037 8.56082 18.3231 8.36936 18.2199 8.18998C17.9914 8.28976 17.7536 8.3668 17.5099 8.41998C17.3215 8.4515 17.1309 8.46822 16.9399 8.46998C16.594 8.48535 16.256 8.36311 15.9999 8.12998C15.8666 7.98758 15.7648 7.81871 15.7011 7.63436C15.6373 7.45001 15.6131 7.25431 15.6299 7.05998C15.6296 6.72304 15.6699 6.38728 15.7499 6.05998C15.8274 5.7509 15.9558 5.45688 16.1299 5.18998C16.3031 4.94479 16.5242 4.73728 16.7799 4.57998C17.0532 4.42222 17.3645 4.34265 17.6799 4.34998C17.8888 4.34624 18.0972 4.36977 18.2999 4.41998C18.5393 4.45352 18.7741 4.5139 18.9999 4.59998C19.1482 4.37224 19.2596 4.12249 19.3299 3.85998C19.3967 3.61841 19.4369 3.37028 19.4499 3.11998C19.1887 3.01966 18.917 2.94921 18.6399 2.90998C18.3355 2.86357 18.0279 2.84017 17.7199 2.83998Z" fill="white"/>
<path d="M25.34 2.91998H24.83L24.31 2.99998C24.2859 3.19587 24.2355 3.38761 24.16 3.56998C24.0348 3.88096 23.8628 4.17097 23.65 4.42998L22.26 6.25998L23.52 9.83998C23.6816 9.87047 23.8456 9.88719 24.01 9.88998H24.48H24.95L25.46 9.83998L24.18 6.26998L25.51 4.59998C25.7247 4.3122 25.9217 4.01165 26.1 3.69998C26.2314 3.48671 26.3166 3.24824 26.35 2.99998L25.85 2.93998L25.34 2.91998Z" fill="white"/>
<path d="M22.88 0.670027C22.8865 0.500528 22.8628 0.331223 22.81 0.170027C22.5425 0.122518 22.2717 0.095772 22 0.0900269H21.5L21 0.170027C21 0.250027 21 0.320027 21 0.390027C21 0.460027 21 0.540027 21 0.630027C20.9753 1.33856 20.8951 2.04406 20.76 2.74003L19.51 9.84003C19.8073 9.89147 20.1083 9.91823 20.41 9.92003C20.7449 9.92024 21.0794 9.89349 21.41 9.84003L22.77 2.09003C22.8517 1.62126 22.8885 1.14578 22.88 0.670027Z" fill="white"/>
<path d="M34.82 3.00002V3.10002C34.8255 3.13648 34.8255 3.17356 34.82 3.21002C34.813 3.43526 34.7862 3.65945 34.74 3.88002C34.6723 4.19305 34.5717 4.49806 34.44 4.79002L33.15 7.79002L32.79 3.00002C32.4594 2.94603 32.125 2.91928 31.79 2.92002C31.4882 2.91914 31.1869 2.94592 30.89 3.00002L29 7.75002L28.77 3.00002L28.32 2.94002H27.86C27.4957 2.93407 27.1315 2.95412 26.77 3.00002L27.48 9.84002C27.6316 9.87186 27.7854 9.89192 27.94 9.90002H28.41H28.96L29.49 9.85002L31.35 5.50002L31.73 9.85002C32.0339 9.90234 32.3417 9.9291 32.65 9.93002H33.21C33.3912 9.92228 33.5716 9.90224 33.75 9.87002L36.21 5.00002C36.3975 4.64731 36.5548 4.27932 36.68 3.90002C36.7759 3.61639 36.8266 3.31941 36.83 3.02002V3.00002C36.4993 2.94706 36.1649 2.92031 35.83 2.92002C35.4917 2.91753 35.1538 2.94429 34.82 3.00002Z" fill="white"/>
<path d="M42.09 3.26997C41.8922 3.13985 41.6717 3.04825 41.4399 2.99997C41.173 2.92561 40.8971 2.88859 40.6199 2.88997C40.0616 2.8717 39.5067 2.98473 39 3.21997C38.5189 3.46378 38.0934 3.80421 37.75 4.21997C37.4228 4.63736 37.1692 5.10742 37 5.60997C36.8134 6.11927 36.7186 6.65759 36.72 7.19997C36.7155 7.59065 36.7764 7.97933 36.9 8.34997C37.0091 8.68655 37.1977 8.99185 37.45 9.23997C37.7373 9.49898 38.079 9.69033 38.45 9.79997C38.8959 9.94163 39.3621 10.0092 39.83 9.99997H40.4L41.0299 9.89997C41.2389 9.86392 41.4458 9.81719 41.65 9.75997C41.8276 9.70923 42.0014 9.64573 42.1699 9.56997C42.1735 9.30163 42.1501 9.03362 42.0999 8.76997C42.0572 8.53609 41.9576 8.3163 41.81 8.12997C41.533 8.24438 41.2491 8.34124 40.9599 8.41997C40.6573 8.50431 40.3441 8.54472 40.0299 8.53997C39.6685 8.561 39.3121 8.44695 39.0299 8.21997C38.7781 7.96965 38.6284 7.63458 38.61 7.27997L39.49 7.12997C39.9077 7.07445 40.3194 6.98072 40.72 6.84997C41.0912 6.73221 41.4445 6.56396 41.77 6.34997C42.0687 6.16153 42.3215 5.9087 42.5099 5.60997C42.6979 5.31067 42.7951 4.96335 42.79 4.60997C42.7974 4.35398 42.7425 4.10003 42.63 3.86997C42.5028 3.62811 42.3171 3.42186 42.09 3.26997ZM40.84 5.10997C40.7782 5.22902 40.6932 5.33445 40.59 5.41997C40.4339 5.53415 40.2621 5.6251 40.08 5.68997C39.8166 5.79446 39.5411 5.86503 39.2599 5.89997L38.5699 5.99997C38.626 5.77199 38.7065 5.55072 38.81 5.33997C38.9014 5.13339 39.0227 4.94134 39.1699 4.76997C39.3078 4.60148 39.4777 4.4621 39.6699 4.35997C39.8608 4.25886 40.074 4.20728 40.29 4.20997C40.3719 4.205 40.4539 4.21661 40.5313 4.2441C40.6086 4.27159 40.6796 4.3144 40.74 4.36997C40.7944 4.42286 40.8369 4.48684 40.8645 4.55758C40.8921 4.62832 40.9042 4.70416 40.9 4.77997C40.8987 4.89257 40.8784 5.00413 40.84 5.10997Z" fill="white"/>
<path d="M49.45 3.47998C49.2785 3.26355 49.0568 3.09217 48.8041 2.98066C48.5515 2.86915 48.2755 2.82086 48 2.83998C47.7397 2.83413 47.4801 2.86785 47.23 2.93998C47.0246 2.99207 46.8289 3.07646 46.65 3.18998C46.4889 3.28726 46.341 3.4049 46.21 3.53998C46.0851 3.66239 45.9682 3.79265 45.86 3.92998L46.19 2.08998C46.2936 1.62292 46.3572 1.14786 46.38 0.669983C46.3814 0.50078 46.3578 0.332299 46.31 0.169983C45.7741 0.572282 45.1441 0.8305 44.48 0.919983C44.4389 1.53061 44.3621 2.13832 44.25 2.73998L43 9.59998C43.3225 9.73071 43.6576 9.82789 44 9.88998C44.372 9.9647 44.7506 10.0016 45.13 9.99998C45.9145 10.0238 46.695 9.88061 47.42 9.57998C47.9913 9.32702 48.5 8.95148 48.91 8.47998C49.2749 8.04644 49.5472 7.54276 49.71 6.99998C49.8871 6.45687 49.9848 5.89103 50 5.31998C50.0278 4.66238 49.8341 4.01446 49.45 3.47998ZM47.8 6.55998C47.7163 6.88594 47.5813 7.19649 47.4 7.47998C47.2227 7.75728 46.9873 7.99272 46.71 8.16998C46.411 8.35769 46.0628 8.45171 45.71 8.43998H45.37C45.2774 8.43401 45.1864 8.41378 45.1 8.37998L45.39 6.68998C45.4455 6.08376 45.6555 5.5019 46 4.99998C46.1189 4.84588 46.27 4.71953 46.4427 4.62973C46.6154 4.53993 46.8056 4.48883 47 4.47998C47.1294 4.46981 47.259 4.49631 47.3739 4.55645C47.4889 4.61659 47.5846 4.70793 47.65 4.81998C47.7828 5.06521 47.8484 5.34122 47.84 5.61998C47.8622 5.93382 47.8488 6.24916 47.8 6.55998Z" fill="white"/>
</g>
<defs>
<clipPath id="clip0_2_273">
<rect width="49.95" height="10" fill="white"/>
</clipPath>
</defs>
</svg>
