<svg width="21" height="26" viewBox="0 0 21 26" fill="none" xmlns="http://www.w3.org/2000/svg">
<path d="M10.5 13C9.21442 13 7.95772 12.6188 6.8888 11.9046C5.81988 11.1903 4.98676 10.1752 4.49479 8.98745C4.00282 7.79973 3.87409 6.49279 4.1249 5.23192C4.3757 3.97104 4.99477 2.81285 5.90381 1.90381C6.81285 0.994768 7.97104 0.375703 9.23192 0.124899C10.4928 -0.125905 11.7997 0.00281635 12.9874 0.494786C14.1752 0.986756 15.1903 1.81988 15.9046 2.8888C16.6188 3.95772 17 5.21442 17 6.5C16.9974 8.2231 16.3117 9.87486 15.0933 11.0933C13.8749 12.3117 12.2231 12.9974 10.5 13ZM10.5 3C9.80777 3 9.13108 3.20527 8.55551 3.58986C7.97994 3.97444 7.53133 4.52107 7.26643 5.16061C7.00152 5.80015 6.93221 6.50389 7.06725 7.18282C7.2023 7.86175 7.53565 8.48539 8.02513 8.97488C8.51461 9.46436 9.13825 9.7977 9.81719 9.93275C10.4961 10.0678 11.1999 9.99849 11.8394 9.73358C12.4789 9.46867 13.0256 9.02007 13.4101 8.4445C13.7947 7.86893 14 7.19224 14 6.5C14 6.04038 13.9095 5.58525 13.7336 5.16061C13.5577 4.73597 13.2999 4.35013 12.9749 4.02513C12.6499 3.70012 12.264 3.44232 11.8394 3.26642C11.4148 3.09053 10.9596 3 10.5 3Z" fill="white"/>
<path d="M21 25.85H10.5H0V21.4C0.00264482 19.6769 0.688313 18.0252 1.90673 16.8068C3.12514 15.5883 4.7769 14.9027 6.5 14.9H14.5C16.2231 14.9027 17.8749 15.5883 19.0933 16.8068C20.3117 18.0252 20.9974 19.6769 21 21.4V25.85ZM3 22.85H18V21.4C18 20.4718 17.6313 19.5815 16.9749 18.9251C16.3185 18.2688 15.4283 17.9 14.5 17.9H6.5C5.57174 17.9 4.6815 18.2688 4.02513 18.9251C3.36875 19.5815 3 20.4718 3 21.4V22.85Z" fill="white"/>
</svg>
