<svg width="197" height="200" viewBox="0 0 197 200" fill="none" xmlns="http://www.w3.org/2000/svg">
<g clip-path="url(#clip0_121_128)">
<path d="M101.976 27.7375C101.976 27.7375 54.2024 -26.3125 14.5927 16.4875C-25.0171 59.2875 27.5629 137.5 41.2696 152.913C54.9764 168.325 84.5619 199.275 93.2753 200C101.989 200.725 195.202 137.5 196.962 71.7875C198.722 6.07503 145.169 -13.3125 101.976 27.7375Z" fill="#F6C63B"/>
<path d="M36.9633 99C38.0693 95.897 38.9496 92.7178 39.5972 89.4875C57.8979 91.375 73.0152 73.2375 64.4391 55.4C60.1324 46.65 49.8711 43.325 40.521 45.4C35.0283 45.875 29.5357 46.25 24.043 46.4875C26.0153 69.575 25.0292 80.8875 27.1139 98.9125C30.397 99 33.7051 99.0125 36.9633 99ZM41.5072 62.5C42.4297 61.9214 43.4747 61.5669 44.5584 61.4649C45.6422 61.3629 46.7348 61.5162 47.7489 61.9125C51.1194 63.475 51.9558 68.6875 50.0084 71.9125C48.061 75.1375 44.7029 76.55 41.1951 77.675C41.5527 72.6251 41.6569 67.5604 41.5072 62.5Z" fill="#556F4D"/>
<path d="M90.4549 53.65C82.5155 53.025 74.988 59.4875 71.1556 66.3875C66.724 74.3875 67.4106 84.5875 73.0905 90.8C80.5806 99.0125 92.8517 96.625 101.44 87.8125L95.8727 80.875C93.4884 83.1125 88.5699 84.85 85.886 83.6375C85.0943 83.2624 84.4301 82.6625 83.976 81.9125C89.1691 81.3 94.5869 79.4125 97.9824 75.9625C105.959 67.375 101.328 54.5125 90.4549 53.65ZM90.767 68.4C90.5797 69.4375 89.5811 70.0375 88.8321 70.475C86.9656 71.5748 84.9912 72.4796 82.9399 73.175C83.7644 70.9103 85.1218 68.8779 86.8972 67.25C87.2441 66.868 87.6843 66.583 88.1746 66.423C88.6649 66.263 89.1883 66.2336 89.6934 66.3375C90.0767 66.5119 90.3906 66.8097 90.5852 67.1835C90.7797 67.5573 90.8437 67.9856 90.767 68.4Z" fill="#556F4D"/>
<path d="M108.256 63.8625C108.418 74.35 110.615 84.5875 117.344 89.8625C126.744 96.6375 139.539 87.4375 140.65 74.65C138.353 74.1 136.069 73.575 133.772 73.05C133.672 73.4125 132.274 77.925 129.677 78.3625C128.943 78.4542 128.201 78.2717 127.592 77.85C124.621 75.9375 124.234 69.6 124.609 61.6L128.204 61.1C130.867 60.8243 133.5 60.3055 136.069 59.55C136.069 57.275 136.069 54.9875 136.069 52.7125C134.159 51.7875 130.201 51.3125 125.495 51.225C125.728 48.9417 126.04 46.4834 126.431 43.85C121.014 43.4125 115.596 43.025 110.203 42.6C109.704 45.475 109.229 48.725 108.88 52.15C107.282 52.35 105.747 52.5875 104.336 52.8375V64.3125L108.256 63.8625Z" fill="#556F4D"/>
<path d="M143.297 60.2C143.459 70.7 145.656 80.9875 152.385 86.6C161.785 93.8 174.58 85.6 175.691 72.925C173.407 72.2 171.11 71.4875 168.825 70.7875C168.713 71.15 167.327 75.5625 164.718 75.7875C163.969 75.8248 163.23 75.5945 162.634 75.1375C159.663 73.05 159.276 66.6875 159.663 58.775L163.245 58.5C165.862 58.3908 168.464 58.0563 171.023 57.5V50.625C169.1 49.55 165.143 48.7875 160.437 48.4125C160.686 46.1375 160.986 43.6875 161.385 41.0875C155.968 40.3125 150.55 39.65 145.157 39.05C144.645 41.9125 144.171 45.15 143.821 48.5625C142.223 48.7 140.688 48.8875 139.277 49.0875V60.5625L143.297 60.2Z" fill="#556F4D"/>
<path d="M49.8208 140.75C48.5725 141.875 44.8275 145 43.2421 144.038C42.3808 143.525 42.5056 141.925 42.5555 141.388C42.8426 137.825 43.2796 124.325 43.8039 105.638C43.8039 105.75 26.4769 104.05 26.4769 103.938C24.88 116.793 24.6206 129.779 25.703 142.688C26.0525 147.2 26.8889 152 29.81 155.538C40.4209 168.525 57.4607 153.425 63.2654 141.538C60.2444 139.675 57.236 137.788 54.215 135.9C52.9582 137.694 51.482 139.323 49.8208 140.75Z" fill="#556F4D"/>
<path d="M126.332 128.25C124.797 132.9 123.71 133.675 123.299 133.65C122.887 133.625 122.737 133.238 122.662 133.088C121.414 130.7 119.878 113.275 119.491 110.588C114.111 111.413 107.782 112.375 102.401 113.238C102.759 120.721 104.094 128.126 106.371 135.263C108.343 141.813 111.689 149.4 118.78 150.725C121.599 151.121 124.471 150.622 126.994 149.3C133.884 145.288 140.251 123.75 140.251 108.263C137.068 108.263 132.761 108.525 129.603 108.625C128.679 113.975 128.342 122.138 126.332 128.25Z" fill="#556F4D"/>
<path d="M162.858 106.525C154.919 105.275 147.392 111.525 143.572 118.288C139.14 126.213 139.827 136.413 145.507 142.763C152.997 151.125 165.268 149.525 173.856 141.713C171.996 139.213 170.111 136.713 168.276 134.213C165.892 136.2 160.961 137.563 158.29 136.188C157.498 135.755 156.838 135.116 156.38 134.338C161.573 134.025 166.99 132.6 170.386 129.488C178.363 121.788 173.731 108.288 162.858 106.525ZM163.171 121.25C162.983 122.263 161.922 122.788 161.236 123.175C159.348 124.141 157.37 124.919 155.331 125.5C156.141 123.299 157.504 121.345 159.288 119.825C159.645 119.462 160.094 119.203 160.587 119.078C161.08 118.952 161.598 118.964 162.084 119.113C162.467 119.31 162.777 119.622 162.972 120.006C163.167 120.389 163.237 120.825 163.171 121.25Z" fill="#556F4D"/>
<path d="M92.9259 115L89.7427 117.938C89.855 116 89.9799 114.063 90.0922 112.113C85.3898 112.384 80.8226 113.79 76.7797 116.21C72.7369 118.63 69.3382 121.993 66.8732 126.013C62.1919 134.013 62.2294 144.25 67.9717 150.663C76.036 159.75 91.0534 158.063 98.169 146.488C101.319 141.513 102.526 135.55 101.559 129.74C100.591 123.93 97.5174 118.682 92.9259 115ZM84.8118 129.175C85.5982 126.85 87.5706 125.425 89.2059 125.988C90.8412 126.55 91.5153 128.888 90.7164 131.2C89.9175 133.513 87.9576 134.95 86.3222 134.388C84.6869 133.825 84.0128 131.463 84.8118 129.15V129.175ZM76.4354 128.15C76.6476 125.65 78.2081 123.85 79.9308 124C81.6535 124.15 82.8768 126.25 82.6646 128.7C82.4524 131.15 80.8795 132.988 79.1693 132.838C77.4591 132.688 76.2232 130.563 76.4354 128.125V128.15ZM70.6182 134.513C69.3698 132.838 69.3698 130.763 70.6182 129.975C71.8665 129.188 73.6516 129.813 74.9 131.5C76.1483 133.188 76.0734 135.25 74.9 136.038C73.7265 136.825 71.7916 136.175 70.6182 134.488V134.513ZM87.3833 146.113C85.2612 146.45 83.8381 144.75 82.8519 144.138C81.8657 143.525 81.3788 142.963 80.2553 143.913C79.1318 144.863 75.9611 145.163 75.9611 145.163C75.9611 145.163 72.3284 144.85 75.3743 139.875C78.4203 134.9 82.0654 135.213 82.0654 135.213C84.662 135.45 86.0726 137.138 87.8827 140.438C89.6928 143.738 89.543 145.775 87.3833 146.113ZM93.238 138.875C91.5528 140.125 89.493 140.125 88.6941 138.875C87.8952 137.625 88.5693 135.788 90.242 134.6C91.9148 133.413 93.987 133.425 94.7735 134.6C95.5599 135.775 94.9483 137.7 93.2755 138.875H93.238Z" fill="#556F4D"/>
</g>
<defs>
<clipPath id="clip0_121_128">
<rect width="197" height="200" fill="white"/>
</clipPath>
</defs>
</svg>